HIERARCHY
ROOT Hips
{
	OFFSET 0.000000 0.000000 0.000000 
	CHANNELS 6 Xposition Yposition Zposition Zrotation Yrotation Xrotation
	JOINT LeftUpLeg
	{
		OFFSET 1.363060 -1.794630 0.839290 
		CHANNELS 3 Zrotation Yrotation Xrotation
		JOINT LeftLeg
		{
			OFFSET 2.448110 -6.726130 0.000000 
			CHANNELS 3 Zrotation Yrotation Xrotation
			JOINT LeftFoot
			{
				OFFSET 2.562200 -7.039590 0.000000 
				CHANNELS 3 Zrotation Yrotation Xrotation
				JOINT LeftToeBase
				{
					OFFSET 0.157640 -0.433110 2.322550 
					CHANNELS 3 Zrotation Yrotation Xrotation
					End Site
					{
						OFFSET 0.000000 0.000000 0.000000 
					}
				}
			}
		}
	}
	JOINT RightUpLeg
	{
		OFFSET -1.305520 -1.794630 0.839290 
		CHANNELS 3 Zrotation Yrotation Xrotation
		JOINT RightLeg
		{
			OFFSET -2.542530 -6.985550 0.000000 
			CHANNELS 3 Zrotation Yrotation Xrotation
			JOINT RightFoot
			{
				OFFSET -2.568260 -7.056230 0.000000 
				CHANNELS 3 Zrotation Yrotation Xrotation
				JOINT RightToeBase
				{
					OFFSET -0.164730 -0.452590 2.363150 
					CHANNELS 3 Zrotation Yrotation Xrotation
					End Site
					{
						OFFSET 0.000000 0.000000 0.000000 
					}
				}
			}
		}
	}
	JOINT Spine
	{
		OFFSET 0.028270 2.035590 -0.193380 
		CHANNELS 3 Zrotation Yrotation Xrotation
		JOINT Spine1
		{
			OFFSET 0.056720 2.048850 -0.042750 
			CHANNELS 3 Zrotation Yrotation Xrotation
			JOINT Neck1
			{
				OFFSET -0.054170 1.746240 0.172020 
				CHANNELS 3 Zrotation Yrotation Xrotation
				JOINT Head
				{
					OFFSET 0.104070 1.761360 -0.123970 
					CHANNELS 3 Zrotation Yrotation Xrotation
					End Site
					{
						OFFSET 0.000000 0.000000 0.000000 
					}
				}
			}
			JOINT LeftArm
			{
				OFFSET 3.362410 1.200890 -0.311210 
				CHANNELS 3 Zrotation Yrotation Xrotation
				JOINT LeftForeArm
				{
					OFFSET 4.983000 -0.000000 -0.000000 
					CHANNELS 3 Zrotation Yrotation Xrotation
					JOINT LeftHand
					{
						OFFSET 3.483560 -0.000000 -0.000000 
						CHANNELS 3 Zrotation Yrotation Xrotation
						JOINT LeftHandIndex1
						{
							OFFSET 0.715260 -0.000000 -0.000000 
							CHANNELS 3 Zrotation Yrotation Xrotation
							End Site
							{
								OFFSET 0.000000 0.000000 0.000000 
							}
						}
					}
				}
			}
			JOINT RightArm
			{
				OFFSET -3.136600 1.374050 -0.404650 
				CHANNELS 3 Zrotation Yrotation Xrotation
				JOINT RightForeArm
				{
					OFFSET -5.241900 -0.000000 -0.000000 
					CHANNELS 3 Zrotation Yrotation Xrotation
					JOINT RightHand
					{
						OFFSET -3.444170 -0.000000 -0.000000 
						CHANNELS 3 Zrotation Yrotation Xrotation
						JOINT RightHandIndex1
						{
							OFFSET -0.622530 -0.000000 -0.000000 
							CHANNELS 3 Zrotation Yrotation Xrotation
							End Site
							{
								OFFSET 0.000000 0.000000 0.000000 
							}
						}
					}
				}
			}
		}
	}
}
MOTION
Frames: 18
Frame Time: 0.041667
-2.413750 17.484916 4.801350 -66.557895 -78.247282 74.667401 1.843514 -10.954394 -34.422494 1.016622 8.410934 22.443435 -0.249883 3.923095 4.543877 0.632800 -5.089900 -14.165000 37.418838 3.657655 1.727782 -0.605749 -6.936531 18.280974 0.408537 -6.180229 -13.416996 -0.102700 -2.066800 5.690300 0.193239 3.563462 -3.743668 1.196041 1.540647 3.074503 5.207979 -3.739847 -5.588971 2.723100 -1.810400 2.557300 -93.959700 1.007916 34.168681 33.560355 -50.108182 -12.368430 0.500216 2.559655 15.561200 -7.125000 0.000000 0.000000 92.272489 2.313791 44.915471 -35.417871 48.274223 -16.804222 -0.718606 0.289608 14.961797 7.125000 0.000000 0.000000 
-2.583124 17.454575 4.801350 -65.918378 -78.256970 74.057631 1.807893 -11.300081 -34.536224 0.982935 8.352161 22.256884 -0.206384 3.757015 4.803422 0.617600 -5.029600 -13.992900 37.423300 3.445266 1.863695 -0.678018 -7.151665 18.912986 0.389471 -6.172372 -13.714551 -0.070500 -1.713000 4.713200 0.116836 3.750202 -3.755091 1.116247 1.631352 3.076602 5.391307 -3.981666 -5.531342 2.793400 -1.920600 2.596900 -94.099674 0.985616 34.360414 33.433434 -50.033186 -12.287413 0.507357 2.563445 15.550486 -7.125000 0.000000 0.000000 93.019564 2.878536 45.677288 -33.301430 46.875741 -15.271734 -0.707145 0.304148 14.840914 7.125000 0.000000 0.000000 
-2.754194 17.425231 4.802748 -65.269623 -78.277947 73.430622 1.738591 -11.632048 -34.638586 0.964063 8.328312 22.175744 -0.158280 3.564487 5.066839 0.599300 -4.955900 -13.782800 37.398756 3.220658 1.968486 -0.759765 -7.385085 19.601085 0.371246 -6.151965 -13.950090 -0.044700 -1.365200 3.754300 0.041352 3.929101 -3.768087 1.039413 1.717502 3.071521 5.590094 -4.228892 -5.463911 2.867600 -2.032800 2.642500 -94.240949 0.984983 34.540862 33.292016 -49.948447 -12.198929 0.514398 2.568731 15.537436 -7.125000 0.000000 0.000000 93.649961 3.412815 46.518504 -31.438699 45.553878 -13.952746 -0.696644 0.317084 14.680920 7.125000 0.000000 0.000000 
-2.926762 17.397185 4.805443 -64.642071 -78.312730 72.819832 1.636736 -11.943088 -34.733585 0.959726 8.338860 22.198455 -0.106365 3.347735 5.329359 0.577700 -4.867200 -13.530100 37.344490 2.991632 2.038854 -0.851908 -7.637329 20.347429 0.354907 -6.120671 -14.116533 -0.025400 -1.029100 2.829000 -0.033342 4.101592 -3.783132 0.966466 1.799863 3.059124 5.803229 -4.480102 -5.385539 2.945100 -2.146500 2.694500 -94.382104 1.007035 34.705176 33.138813 -49.855186 -12.104449 0.521235 2.575167 15.521676 -7.125000 0.000000 0.000000 94.163392 3.913536 47.454487 -29.813353 44.325544 -12.826297 -0.687068 0.328232 14.474777 7.125000 0.000000 0.000000 
-3.100926 17.370437 4.809535 -64.026056 -78.360717 72.214551 1.501600 -12.233512 -34.817381 0.968860 8.381512 22.318161 -0.050919 3.107092 5.589482 0.552900 -4.763100 -13.234200 37.259795 2.755683 2.073748 -0.955020 -7.907652 21.150881 0.342037 -6.082946 -14.204708 -0.011800 -0.702900 1.931500 -0.107057 4.265850 -3.799613 0.896850 1.877466 3.040629 6.030867 -4.734345 -5.298002 3.026100 -2.261000 2.752200 -94.523523 1.049572 34.850659 32.974432 -49.753947 -12.004800 0.528132 2.582594 15.501780 -7.125000 0.000000 0.000000 94.559510 4.377326 48.494209 -28.412896 43.207235 -11.875140 -0.678326 0.337505 14.218533 7.125000 0.000000 0.000000 
-3.276588 17.345285 4.814924 -63.409980 -78.421886 71.601302 1.330793 -12.503596 -34.885449 0.990709 8.453843 22.528313 0.007421 2.843492 5.843471 0.525300 -4.644700 -12.898000 37.142547 2.509919 2.071924 -1.070125 -8.195785 22.011994 0.334890 -6.047115 -14.210419 -0.003700 -0.391600 1.075900 -0.179108 4.419347 -3.816772 0.832126 1.949316 3.016994 6.269338 -4.989990 -5.200893 3.109100 -2.375700 2.815500 -94.665161 1.111746 34.973710 32.801008 -49.645910 -11.901163 0.534687 2.591505 15.473066 -7.125000 0.000000 0.000000 94.837907 4.802177 49.644645 -27.224694 42.212670 -11.082905 -0.670319 0.344941 13.914062 7.125000 0.000000 0.000000 
-3.453547 17.321731 4.821512 -62.803353 -78.496840 70.990542 1.126045 -12.750629 -34.937253 1.024866 8.553749 22.822943 0.067846 2.559287 6.087455 0.495000 -4.510900 -12.518500 36.993162 2.258099 2.030931 -1.198245 -8.501955 22.932668 0.333680 -6.015415 -14.133811 -0.000200 -0.093800 0.257800 -0.249641 4.561986 -3.835213 0.771639 2.015149 2.986456 6.518617 -5.245939 -5.093495 3.194000 -2.490000 2.884300 -94.806211 1.194492 35.069913 32.619241 -49.531336 -11.794045 0.541037 2.601017 15.438926 -7.125000 0.000000 0.000000 94.999992 5.184692 50.907766 -26.239732 41.354347 -10.436464 -0.663051 0.350495 13.562993 7.125000 0.000000 0.000000 
-3.631804 17.300172 4.829396 -62.208213 -78.585578 70.384673 0.888465 -12.974906 -34.969802 1.070629 8.678221 23.193709 0.129507 2.257629 6.317060 0.462500 -4.362400 -12.098500 36.810977 2.002134 1.948368 -1.340691 -8.826062 23.914626 0.338273 -5.987101 -13.977563 -0.000800 0.180400 -0.495800 -0.318099 4.692838 -3.854613 0.716830 2.074614 2.949890 6.777369 -5.500612 -4.976367 3.280600 -2.603100 2.958300 -94.946848 1.298048 35.137497 32.430736 -49.411318 -11.684645 0.547281 2.611731 15.394060 -7.125000 0.000000 0.000000 95.044667 5.522631 52.281306 -25.449850 40.642999 -9.924876 -0.656362 0.354401 13.173469 7.125000 0.000000 0.000000 
-3.811258 17.280510 4.838379 -61.632593 -78.687441 69.791072 0.620536 -13.175321 -34.979619 1.127359 8.824309 23.632732 0.191333 1.942135 6.527011 0.428500 -4.201200 -11.643300 36.597368 1.743910 1.822623 -1.498383 -9.167940 24.958985 0.349399 -5.968137 -13.742630 -0.004600 0.439600 -1.207900 -0.383986 4.811685 -3.874752 0.668477 2.127692 2.908085 7.044502 -5.753231 -4.850203 3.368400 -2.714700 3.036800 -95.087177 1.420343 35.174732 32.235518 -49.285947 -11.573213 0.553664 2.623308 15.339421 -7.125000 0.000000 0.000000 94.971538 5.815341 53.757302 -24.850247 40.088546 -9.539803 -0.650168 0.356690 12.751131 7.125000 0.000000 0.000000 
-3.991710 17.262844 4.848460 -61.067218 -78.801729 69.204455 0.324431 -13.354687 -34.968739 1.194578 8.989368 24.132173 0.252466 1.616204 6.713604 0.393500 -4.027600 -11.154400 36.351377 1.484842 1.646405 -1.672640 -9.526922 26.066565 0.367730 -5.963162 -13.428150 -0.011000 0.677900 -1.863000 -0.447149 4.916538 -3.896138 0.626183 2.173400 2.861288 7.319355 -6.002315 -4.713942 3.457400 -2.824000 3.120000 -95.226309 1.561173 35.179584 32.034173 -49.155496 -11.460061 0.559724 2.636210 15.275694 -7.125000 0.000000 0.000000 94.783152 6.062545 55.319259 -24.435057 39.696910 -9.273791 -0.644312 0.357530 12.308131 7.125000 0.000000 0.000000 
-4.173161 17.247673 4.859538 -60.525203 -78.927183 68.629310 0.000577 -13.510218 -34.920678 1.270485 9.168101 24.677503 0.311865 1.284944 6.874881 0.357900 -3.843500 -10.636700 36.075481 1.221531 1.428145 -1.864056 -9.901421 27.233990 0.393353 -5.974509 -13.033843 -0.019000 0.888900 -2.443100 -0.507080 5.006873 -3.917502 0.589018 2.211562 2.807842 7.600025 -6.247037 -4.567507 3.546900 -2.930700 3.208000 -95.362921 1.718176 35.150072 31.828121 -49.020679 -11.346196 0.565577 2.650537 15.208371 -7.125000 0.000000 0.000000 94.483160 6.266247 56.950179 -24.198279 39.470014 -9.120309 -0.638729 0.357236 11.861104 7.125000 0.000000 0.000000 
-4.355509 17.234798 4.871615 -60.007196 -79.063101 68.072596 -0.345343 -13.644205 -34.841444 1.354680 9.358057 25.261741 0.368502 0.954599 7.007791 0.322600 -3.650700 -10.095900 35.770880 0.959918 1.157923 -2.074020 -10.290978 28.462924 0.426531 -6.007810 -12.563640 -0.027400 1.069400 -2.939800 -0.563042 5.082753 -3.939188 0.560329 2.242261 2.751465 7.881468 -6.486697 -4.412337 3.634600 -3.034500 3.299200 -95.497199 1.891259 35.089578 31.619607 -48.883650 -11.233139 0.571246 2.666745 15.132633 -7.125000 0.000000 0.000000 94.072206 6.428741 58.625133 -24.135469 39.408056 -9.074802 -0.633432 0.356157 11.418404 7.125000 0.000000 0.000000 
-4.538557 17.224518 4.884690 -59.515553 -79.208085 67.535468 -0.711542 -13.758621 -34.725027 1.445721 9.555357 25.872988 0.421308 0.631168 7.110374 0.288200 -3.452300 -9.540700 35.439139 0.701484 0.838838 -2.302509 -10.692628 29.747051 0.468190 -6.070330 -12.015239 -0.035300 1.212000 -3.332300 -0.614976 5.143447 -3.960790 0.538195 2.265265 2.691709 8.168707 -6.720552 -4.245777 3.723700 -3.134800 3.395900 -95.629877 2.076193 34.995579 31.402351 -48.739561 -11.117412 0.577356 2.683684 15.052857 -7.125000 0.000000 0.000000 93.553314 6.554328 60.315465 -24.240818 39.506791 -9.133121 -0.628243 0.354290 10.997981 7.125000 0.000000 0.000000 
-4.722103 17.216733 4.898563 -59.080055 -79.364118 67.050069 -1.094369 -13.848615 -34.571706 1.542245 9.756198 26.500620 0.469250 0.320946 7.178714 0.255300 -3.251100 -8.978800 35.081371 0.454414 0.466143 -2.550851 -11.106035 31.087822 0.518278 -6.167615 -11.392633 -0.041800 1.319700 -3.628900 -0.662832 5.190756 -3.983097 0.523709 2.281327 2.627984 8.458077 -6.947013 -4.070702 3.812200 -3.230900 3.495800 -95.758957 2.273396 34.869000 31.177655 -48.588217 -10.999028 0.584352 2.699795 14.974434 -7.125000 0.000000 0.000000 92.932019 6.645629 61.998440 -24.509505 39.760022 -9.292947 -0.623129 0.351986 10.606653 7.125000 0.000000 0.000000 
-4.906049 17.211543 4.913235 -58.691561 -79.529668 66.605951 -1.492037 -13.919041 -34.375556 1.642524 9.956824 27.132652 0.511841 0.028824 7.210728 0.224100 -3.046900 -8.409300 34.698192 0.217241 0.040150 -2.819136 -11.528641 32.480496 0.576893 -6.305267 -10.700733 -0.046800 1.395700 -3.838300 -0.706153 5.222444 -4.005270 0.516870 2.289658 2.561534 8.744977 -7.164935 -3.886055 3.898400 -3.322400 3.599200 -95.885398 2.479279 34.708566 30.944356 -48.429643 -10.878151 0.591775 2.716610 14.898094 -7.125000 0.000000 0.000000 92.210195 6.708452 63.652221 -24.936520 40.158255 -9.552101 -0.618144 0.349526 10.262900 7.125000 0.000000 0.000000 
-5.090294 17.208948 4.928505 -58.344071 -79.703929 66.197942 -1.902559 -13.971170 -34.134304 1.744488 10.153478 27.757556 0.549108 -0.243911 7.203938 0.195100 -2.844300 -7.845500 34.291520 -0.008152 -0.438919 -3.107374 -11.957780 33.919105 0.643759 -6.489254 -9.946229 -0.049800 1.439900 -3.960100 -0.744462 5.237031 -4.027579 0.519100 2.289186 2.491901 9.032749 -7.372149 -3.694696 3.984100 -3.408100 3.704100 -96.007736 2.694468 34.514785 30.702997 -48.263986 -10.755179 0.599879 2.734129 14.824942 -7.125000 0.000000 0.000000 91.392096 6.745745 65.253514 -25.520163 40.693350 -9.911880 -0.613286 0.346863 9.972125 7.125000 0.000000 0.000000 
-5.274639 17.209147 4.944475 -58.049702 -79.886951 65.836755 -2.323870 -14.005570 -33.842564 1.845872 10.342239 28.363066 0.580597 -0.493062 7.157432 0.168700 -2.645800 -7.294100 33.862735 -0.218639 -0.969346 -3.415369 -12.391080 35.398660 0.717725 -6.719241 -9.136902 -0.050300 1.447300 -3.980400 -0.777594 5.234970 -4.049690 0.530250 2.280364 2.419708 9.317556 -7.568209 -3.495777 4.067800 -3.488100 3.810600 -96.125324 2.917548 34.289714 30.454162 -48.091234 -10.630230 0.608917 2.751327 14.758761 -7.125000 0.000000 0.000000 90.482937 6.760458 66.782117 -26.258338 41.354479 -10.373610 -0.608675 0.344222 9.750399 7.125000 0.000000 0.000000 
-5.459083 17.211942 4.960943 -57.806079 -80.077611 65.520643 -2.754110 -14.023212 -33.498273 1.944388 10.519587 28.937440 0.606807 -0.718430 7.072919 0.144700 -2.451700 -6.755900 33.413774 -0.414044 -1.551549 -3.742440 -12.825673 36.912964 0.797929 -6.998129 -8.284070 -0.048700 1.424000 -3.916300 -0.805194 5.214837 -4.071398 0.550599 2.262555 2.345361 9.596817 -7.752184 -3.288523 4.148400 -3.561800 3.919100 -96.238376 3.146067 34.032312 30.195316 -47.909443 -10.501686 0.618578 2.768344 14.708566 -7.125000 0.000000 0.000000 89.485098 6.757794 68.222435 -27.150200 42.130162 -10.940305 -0.604407 0.341660 9.608108 7.125000 0.000000 0.000000 
